<svg xmlns="http://www.w3.org/2000/svg" width="50" height="50" viewBox="0 0 50 50" fill="none"><path d="M21.5161 16.626C21.8696 17.224 22.508 17.5957 23.2025 17.608C23.2328 17.6085 23.2631 17.6083 23.2932 17.6075L23.3122 11.9287L15.6103 9.62573C16.8191 10.1163 17.8364 11.0341 18.8033 12.3008C19.605 13.3512 20.2812 14.5113 21 15.7447C21.169 16.0346 21.3403 16.3285 21.5161 16.626Z" fill="#47B1E4"></path><path d="M23.3122 11.9287L27.2841 13.1163C27.6054 12.674 27.9373 12.2431 28.2839 11.8301C28.9244 11.0668 29.5727 10.4182 30.238 9.90553L24.8148 9.80179L23.3125 11.8159L23.3122 11.9287Z" fill="#47B1E4"></path><path d="M24.9225 16.6861C25.0385 16.5048 25.1545 16.3228 25.2707 16.1403C25.9195 15.1219 26.5761 14.0912 27.2841 13.1163L23.3122 11.9287L23.2932 17.6075C23.9534 17.5893 24.5645 17.2457 24.9225 16.6861Z" fill="#47B1E4"></path><path d="M32.1757 8.83469C34.8836 7.92497 37.4266 8.49691 39.4069 10.0809C39.6398 10.2672 39.866 10.4686 40.0843 10.6843L41.9055 6.95724L30.9018 5.04293L25.2198 9.25887L24.8148 9.80179L30.238 9.90553C30.8662 9.42136 31.5096 9.05844 32.1757 8.83469Z" fill="#47B1E4"></path><path d="M30.9018 5.04293C28.5271 5.84066 26.676 7.52354 25.2198 9.25887L30.9018 5.04293Z" fill="#47B1E4"></path><path d="M41.9055 6.95724C38.9055 4.55765 34.9498 3.68307 30.9018 5.04293L41.9055 6.95724Z" fill="#47B1E4"></path><path d="M47.2109 17.538C46.8286 13.1225 44.8744 9.33198 41.9055 6.95724L40.0843 10.6843C41.7513 12.3319 42.9607 14.8209 43.2259 17.8831C43.3964 19.853 42.7177 22.3042 41.2783 25.0111C39.8568 27.6843 37.7926 30.4196 35.4743 32.8873C33.1573 35.3536 30.6404 37.4953 28.3575 39.0032C27.2572 39.7299 26.2814 40.2623 25.4549 40.6247L23.2009 45.2378C25.4285 45.2432 28.0847 43.9771 30.562 42.3408C33.1409 40.6375 35.892 38.2847 38.3896 35.6261C40.8858 32.969 43.1829 29.9491 44.81 26.8892C46.4191 23.8631 47.4764 20.6037 47.2109 17.538Z" fill="#47B1E4"></path><path d="M21.8842 9.74574C20.6977 8.21858 19.1789 6.75711 17.1144 5.91928C9.42374 2.79873 1.72264 8.56741 0.707118 16.8903C0.328424 19.9955 1.16781 23.3136 2.57849 26.4273C4.00016 29.5652 6.07445 32.6568 8.38358 35.3777C10.6927 38.0986 13.2869 40.5081 15.7926 42.2563C18.2166 43.9477 20.8571 45.2321 23.2009 45.2378L23.2142 41.2378L23.2105 41.2378C22.1351 41.2352 20.343 40.5539 18.0814 38.9759C15.9013 37.4548 13.5565 35.2913 11.4334 32.7895C9.31023 30.2878 7.45902 27.5069 6.22199 24.7766C4.97396 22.0219 4.42144 19.4758 4.67767 17.3748C5.45025 11.043 10.9119 7.71942 15.6103 9.62573L21.8842 9.74574Z" fill="#47B1E4"></path><path d="M23.2009 45.2378L25.4549 40.6247C24.4926 41.0466 23.7327 41.2381 23.2142 41.2378L23.2009 45.2378Z" fill="#47B1E4"></path><path d="M23.3125 11.8159C22.9001 11.1573 22.4581 10.4965 21.9829 9.87392C21.9503 9.83115 21.9174 9.78842 21.8842 9.74574L15.6103 9.62573L23.3122 11.9287L23.3125 11.8159Z" fill="#47B1E4"></path><path fill-rule="evenodd" clip-rule="evenodd" d="M42.1587 4.30526C42.8438 5.1717 42.6968 6.42947 41.8303 7.11457C41.2281 7.59073 40.649 8.12512 40.0185 8.71563C39.2123 9.47068 37.9466 9.42921 37.1916 8.62299C36.4366 7.81678 36.478 6.55113 37.2842 5.79609C37.9106 5.20949 38.6005 4.56909 39.3494 3.9769C40.2158 3.29181 41.4736 3.43882 42.1587 4.30526Z" fill="#47B1E4"></path><path fill-rule="evenodd" clip-rule="evenodd" d="M23.5472 6.83406C24.226 7.70542 24.0699 8.96209 23.1986 9.64093C23.0027 9.79356 22.7982 9.95562 22.5868 10.1231C21.9635 10.6171 21.2807 11.1581 20.5839 11.643C19.6773 12.2739 18.4308 12.0503 17.7999 11.1437C17.169 10.237 17.3926 8.99055 18.2992 8.35965C18.8857 7.95157 19.4239 7.52511 20.0162 7.05587C20.2473 6.87274 20.4867 6.68309 20.7403 6.48548C21.6117 5.80664 22.8683 5.96271 23.5472 6.83406Z" fill="#47B1E4"></path><path fill-rule="evenodd" clip-rule="evenodd" d="M19.3008 4.20224C19.9799 5.07339 19.8242 6.33012 18.9531 7.00921C18.7584 7.16094 18.5554 7.32188 18.3457 7.48812C17.7209 7.98339 17.0368 8.52569 16.3382 9.01172C15.4315 9.64254 14.185 9.41887 13.5542 8.51215C12.9234 7.60543 13.1471 6.35901 14.0538 5.72819C14.6414 5.31938 15.1813 4.89151 15.7755 4.42053C16.0049 4.23874 16.2424 4.05052 16.4938 3.8545C17.365 3.1754 18.6217 3.33109 19.3008 4.20224Z" fill="#47B1E4"></path><path fill-rule="evenodd" clip-rule="evenodd" d="M47.9458 9.30637C48.6249 10.1775 48.4692 11.4342 47.5981 12.1133C47.4036 12.265 47.2008 12.4257 46.9914 12.5916C46.3664 13.087 45.6824 13.6291 44.9837 14.1155C44.0772 14.7466 42.8307 14.5233 42.1996 13.6168C41.5685 12.7103 41.7918 11.4638 42.6983 10.8327C43.2867 10.423 43.8275 9.99447 44.4225 9.52304C44.6513 9.3417 44.8882 9.15402 45.1389 8.95862C46.01 8.27953 47.2667 8.43522 47.9458 9.30637Z" fill="#47B1E4"></path><path fill-rule="evenodd" clip-rule="evenodd" d="M49.2099 17.0831C49.889 17.9543 49.7333 19.211 48.8621 19.8901C48.6683 20.0411 48.4664 20.2012 48.2579 20.3664C47.632 20.8624 46.9472 21.4051 46.247 21.8923C45.3404 22.5232 44.0939 22.2996 43.463 21.393C42.8321 20.4863 43.0557 19.2399 43.9623 18.609C44.5518 18.1987 45.0936 17.7695 45.6897 17.2972C45.9176 17.1167 46.1535 16.9298 46.4029 16.7354C47.2741 16.0563 48.5308 16.212 49.2099 17.0831Z" fill="#47B1E4"></path><path fill-rule="evenodd" clip-rule="evenodd" d="M46.2476 26.1823C46.7392 27.1714 46.3359 28.3718 45.3468 28.8634C45.1267 28.9728 44.8967 29.0895 44.6592 29.2099C43.9472 29.571 43.1675 29.9664 42.3841 30.3039C41.3697 30.7409 40.193 30.2728 39.756 29.2584C39.319 28.2439 39.7871 27.0673 40.8015 26.6303C41.4604 26.3464 42.0761 26.0342 42.7539 25.6906C43.0136 25.5589 43.2825 25.4226 43.5664 25.2815C44.5556 24.7899 45.756 25.1932 46.2476 26.1823Z" fill="#47B1E4"></path><path fill-rule="evenodd" clip-rule="evenodd" d="M43.9636 31.4628C44.5478 32.4003 44.2614 33.6338 43.324 34.218C42.763 34.5677 41.0137 35.4794 39.414 36.3073C38.9493 36.5477 38.4903 36.7847 38.0595 37.007C36.9308 37.5896 35.9962 38.072 35.6636 38.2551C34.696 38.7878 33.4798 38.4352 32.9471 37.4676C32.4144 36.5 32.7669 35.2837 33.7346 34.751C34.1178 34.54 35.1443 34.0102 36.3068 33.4102C36.7201 33.1969 37.1506 32.9747 37.5754 32.7548C39.2778 31.8738 40.8225 31.0638 41.2084 30.8233C42.1458 30.2391 43.3793 30.5254 43.9636 31.4628Z" fill="#47B1E4"></path><path fill-rule="evenodd" clip-rule="evenodd" d="M37.1274 39.4447C37.7283 40.3716 37.4641 41.61 36.5372 42.2109C35.9824 42.5706 34.2495 43.5134 32.6648 44.3697C32.2061 44.6175 31.7529 44.8618 31.3274 45.0911C30.2074 45.6948 29.2798 46.1947 28.9503 46.3839C27.9924 46.9339 26.77 46.6032 26.22 45.6453C25.67 44.6874 26.0007 43.465 26.9586 42.915C27.3385 42.6969 28.3575 42.1477 29.5109 41.5261C29.919 41.3062 30.3439 41.0772 30.7633 40.8506C32.4497 39.9393 33.9798 39.1019 34.3613 38.8545C35.2881 38.2536 36.5266 38.5179 37.1274 39.4447Z" fill="#47B1E4"></path></svg>