<svg xmlns="http://www.w3.org/2000/svg" xmlns:xlink="http://www.w3.org/1999/xlink" id="eG6N7PmeCUu1" viewBox="0 0 495 507"><style><![CDATA[#eG6N7PmeCUu2_tk {animation: eG6N7PmeCUu2_tk__tk 3000ms linear infinite normal forwards}@keyframes eG6N7PmeCUu2_tk__tk { 0% {transform: translate(247.499954px,253.499973px) skewX(0deg) skewY(0deg)} 50% {transform: translate(247.499954px,253.499973px) skewX(4deg) skewY(-3deg);animation-timing-function: cubic-bezier(0.42,0,0.58,1)} 100% {transform: translate(247.499954px,253.499973px) skewX(0deg) skewY(0deg)}}]]></style><g id="eG6N7PmeCUu2_tk" transform="translate(247.499954,253.499973) skewX(0) skewY(0)"><path d="M18.9771,129.961c1.6054-65.25,54.7181-81.2945,81.0739-81.1606c30.101,0,98.573-6.5089,131.644-32.5445c41.34-32.5444,106.359-10.84811,124.42,18.0803s32.51,56.2496,90.305,65.0888c57.795,8.839,55.789,77.544,36.122,101.249-19.666,23.706-23.68,79.554,0,108.482s-10.836,100.847-55.788,89.999-83.081,25.313-103.148,68.705c-20.068,43.393-115.189,55.848-133.25,10.848-18.061-44.999-72.244-72.321-121.2095-79.553-48.9653-7.232-86.2913-48.615-61.00598-118.927C33.4259,209.915,16.9703,211.523,18.9771,129.961Z" transform="translate(-247.499954,-253.499973)" fill="#fff1fb"></path></g></svg>