<svg xmlns="http://www.w3.org/2000/svg" xmlns:xlink="http://www.w3.org/1999/xlink" id="edQxfTNmHWi1" viewBox="0 0 75 51"><style><![CDATA[#edQxfTNmHWi2_to {animation: edQxfTNmHWi2_to__to 3000ms linear infinite normal forwards}@keyframes edQxfTNmHWi2_to__to { 0% {transform: translate(36.291615px,41.440959px)} 66.666667% {transform: translate(36.291615px,41.5px)} 100% {transform: translate(36.291615px,41.440959px)}} #edQxfTNmHWi5_to {animation: edQxfTNmHWi5_to__to 3000ms linear infinite normal forwards}@keyframes edQxfTNmHWi5_to__to { 0% {transform: translate(36.796175px,31.547514px)} 56.666667% {transform: translate(36.796175px,33px)} 100% {transform: translate(36.796175px,31.547514px)}} #edQxfTNmHWi6_to {animation: edQxfTNmHWi6_to__to 3000ms linear infinite normal forwards}@keyframes edQxfTNmHWi6_to__to { 0% {transform: translate(37.500004px,19.099258px)} 40% {transform: translate(37.500004px,21px)} 100% {transform: translate(37.500004px,19.099258px)}}]]></style><g id="edQxfTNmHWi2_to" transform="translate(36.291615,41.440959)"><g transform="translate(-36.291614,-41.440959)"><path d="M19.7109,49.0173c2.229-4.1912,6.3922-7.8247,11.1716-9.7222c1.3255-.5262,2.673-.91,4.0176-1.1382l12.9026-3.6553L46.334,37.125l-6.5456.9193c1.7746.2368,3.4878.7936,5.0771,1.7041c3.6338,2.0817,6.0508,5.3097,7.9161,9.4791.6787,1.517,2.4444,2.1902,3.944,1.5036c1.4995-.6865,2.165-2.4728,1.4863-3.9897-2.1924-4.9006-5.3278-9.3289-10.4092-12.2398-6.1129-3.5022-13.1029-3.1993-19.0976-.8194-5.9742,2.3716-11.287,6.9194-14.2433,12.4784-.7799,1.4663-.237,3.2945,1.2125,4.0834s3.2568.2397,4.0366-1.2267Z" clip-rule="evenodd" fill="#2f2b2b" fill-rule="evenodd"></path><path d="M46.334,37.125l1.4687-2.6234-12.9026,3.6553c1.6487-.2797,3.2933-.3254,4.8883-.1126l6.5456-.9193Z" fill="#2f2b2b"></path></g></g><g id="edQxfTNmHWi5_to" transform="translate(36.796175,31.547514)"><path d="M25.8104,26.2712c-6.6218,4.2693-11.784,11.29-13.5702,18.3854-.4062,1.6136-2.0285,2.5885-3.6236,2.1776s-2.55881-2.0521-2.15261-3.6656C8.65448,34.467,14.8134,26.2111,22.6068,21.1864c7.8372-5.0529,17.7087-7.0481,27.0555-2.3995c9.4209,4.6853,14.6757,14.5988,17.4236,23.5333.489,1.5899-.3887,3.2797-1.9604,3.7744-1.5716.4946-3.2421-.3932-3.7311-1.9831-2.5681-8.3503-7.1313-16.3175-14.3619-19.9134v0c-7.0062-3.4845-14.644-2.1681-21.2221,2.0731Z" transform="translate(-36.796175,-31.547514)" clip-rule="evenodd" fill="#2f2b2b" fill-rule="evenodd"></path></g><g id="edQxfTNmHWi6_to" transform="translate(37.500004,19.099258)"><path d="M45.8554,6.79683C41.993,5.73902,35.8248,5.81709,31.9017,6.7739C18.5405,10.0327,7.492,21.5322,5.94227,35.5192c-.18334,1.6547-1.65798,2.8457-3.29369,2.6603s-2.813107-1.6772-2.629768-3.332C1.87622,18.0837,14.9627,4.70278,30.5047,0.912124l.6985,2.930886-.6985-2.930888c4.7587-1.160617,11.9526-1.292756,16.9084.064503l.0001.00003C63.1299,5.28173,70.9258,17.5485,74.892,32.099c.4376,1.6052-.494,3.2652-2.0808,3.7078-1.5867.4426-3.2277-.4998-3.6653-2.1049C65.4795,20.2511,58.7412,10.3264,45.8554,6.79683Z" transform="translate(-37.500004,-19.099258)" clip-rule="evenodd" fill="#2f2b2b" fill-rule="evenodd"></path></g></svg>