<svg xmlns="http://www.w3.org/2000/svg" width="50" height="50" viewBox="0 0 50 50" fill="none"><path fill-rule="evenodd" clip-rule="evenodd" d="M23.9154 16.4889C20.3845 16.9521 17.3733 19.1622 16.6303 22.5572C16.2077 24.4883 16.8353 26.2018 17.9695 28.3691C18.1345 28.6843 18.3149 29.0152 18.5033 29.3608C19.2676 30.7629 20.1629 32.4053 20.6873 34.2088H28.8913C29.2639 33.1487 29.7114 32.1315 30.0426 31.4398C30.4585 30.5716 30.9676 29.7684 31.3862 29.1081C31.5161 28.9032 31.6373 28.712 31.7443 28.5368C32.2304 27.7411 32.5782 27.0566 32.7688 26.23C32.9718 25.3495 33.0693 24.2396 33.0073 23.1443C32.9442 22.0301 32.7249 21.0855 32.4108 20.4565M23.9154 16.4889C27.4473 16.0256 30.878 17.3885 32.4108 20.4565L23.9154 16.4889ZM23.3951 12.5229C28.1343 11.9012 33.4968 13.6803 35.9891 18.6688C36.6321 19.9562 36.9202 21.4921 37.0009 22.9182C37.0827 24.3632 36.9606 25.8534 36.6666 27.1287C36.3347 28.5679 35.7333 29.6801 35.1576 30.6222C34.9825 30.909 34.8189 31.1673 34.6645 31.411C34.2814 32.0158 33.9552 32.5308 33.6503 33.1675C33.2035 34.1005 32.5951 35.5486 32.3113 36.691C32.0898 37.5827 31.2892 38.2088 30.3703 38.2088H19.0726C18.0656 38.2088 17.2157 37.4602 17.0886 36.4614C16.8747 34.7807 16.0785 33.3034 15.0853 31.4606C14.8731 31.0669 14.652 30.6565 14.4255 30.2239C13.2287 27.937 11.9766 25.1115 12.7228 21.7021C13.9168 16.2464 18.6548 13.1447 23.3951 12.5229Z" fill="#09B1AB"></path><path d="M33 37.9C33 37.8 33 37.8 33 37.7C33 37.3 32.9 36.7 32.6 36.1C32.4 35.5 31.9 34.6 31 34.1C30.2 33.7 29.3 33.6 28.7 33.6C28.4 33.6 28.1 33.6 27.8 33.6H27.6C27.4 33.6 27.3 33.6 27.2 33.6H26.3C24.8 33.6 23.3 33.6 21.7 33.6C20.8 33.6 19 33.7 17.6 34.8C16.9 35.4 16.6 36.3 16.5 36.8C16.5 37.2 16.5 37.8 16.5 37.9V38V39.4V40.8V42.6C16.5 44.4 18.1 45.2 18.8 45.5C19.7 45.9 20.8 46.1 21.8 46.2C23.9 46.4 26.3 46.4 27.7 46.2C28.1 46.1 28.8 46.1 29.4 45.9C30.1 45.7 30.9 45.4 31.6 44.8C32.3 44.2 32.6 43.4 32.8 42.7C33 42 33 41.3 33.1 40.7V40.6C33.2 39.6 33 38.5 33 37.9ZM29 42C29 42 28.8 42.1 28.5 42.2C28.2 42.3 27.8 42.3 27.3 42.4C26.2 42.5 24.1 42.6 22.3 42.4C21.6 42.3 21 42.1 20.6 42C20.6 41.5 20.6 41.1 20.6 40.7C20.6 39.9 20.6 39 20.6 38.1V37.7C20.9 37.6 21.3 37.6 22 37.5C23.5 37.5 24.9 37.5 26.4 37.5H26.5H27.7H28H28.1H28.7H29C29 37.6 29 37.6 29 37.7C29 37.8 29 38 29.1 38.1V38.3C29.2 39 29.3 39.9 29.3 40.7C29.3 41.2344 29.1 41.7 29 42Z" fill="#09B1AB"></path><path fill-rule="evenodd" clip-rule="evenodd" d="M25.4186 42.7815C26.5228 42.7549 27.4395 43.6285 27.4661 44.7328C27.4865 45.579 27.4993 46.5117 27.4246 47.4606C27.3378 48.5617 26.3749 49.3841 25.2737 49.2973C24.1725 49.2106 23.3502 48.2476 23.4369 47.1465C23.4943 46.4183 23.4874 45.6625 23.4673 44.829C23.4407 43.7248 24.3143 42.8081 25.4186 42.7815Z" fill="#09B1AB"></path><path fill-rule="evenodd" clip-rule="evenodd" d="M10.3602 29.7726C10.8538 30.7608 10.4528 31.962 9.46467 32.4555C9.05242 32.6615 8.63352 32.8553 8.24631 33.0344C8.18426 33.0632 8.12302 33.0915 8.06275 33.1194C7.61323 33.3279 7.20357 33.5212 6.81236 33.7277C5.8355 34.2432 4.62564 33.8693 4.11006 32.8924C3.59448 31.9156 3.96843 30.7057 4.94528 30.1902C5.43527 29.9315 5.92636 29.701 6.37996 29.4906C6.44542 29.4603 6.50993 29.4304 6.5736 29.4009C6.96392 29.2203 7.32276 29.0542 7.67726 28.8771C8.66541 28.3835 9.8666 28.7845 10.3602 29.7726Z" fill="#09B1AB"></path><path fill-rule="evenodd" clip-rule="evenodd" d="M4.1903 12.8114C4.78241 11.8789 6.01831 11.603 6.95078 12.1951C7.45336 12.5143 7.94202 12.8473 8.39988 13.1593C8.41975 13.1729 8.43956 13.1864 8.45931 13.1998C8.94391 13.53 9.39618 13.8371 9.85295 14.124C10.7883 14.7115 11.0703 15.946 10.4829 16.8814C9.89537 17.8168 8.66084 18.0988 7.72547 17.5113C7.19634 17.179 6.68517 16.8313 6.20688 16.5054C6.19339 16.4962 6.17992 16.487 6.16648 16.4778C5.69386 16.1558 5.25313 15.8554 4.80657 15.5719C3.87411 14.9798 3.5982 13.7439 4.1903 12.8114Z" fill="#09B1AB"></path><path fill-rule="evenodd" clip-rule="evenodd" d="M25.371 0.778874C26.475 0.814176 27.3413 1.73777 27.306 2.84177C27.2676 4.04428 27.2604 5.23217 27.2937 6.42393C27.3246 7.52806 26.4545 8.44818 25.3504 8.47906C24.2463 8.50994 23.3262 7.6399 23.2953 6.53576C23.2594 5.25332 23.2675 3.98472 23.3081 2.71393C23.3434 1.60993 24.267 0.743572 25.371 0.778874Z" fill="#09B1AB"></path><path fill-rule="evenodd" clip-rule="evenodd" d="M45.9809 11.4773C46.5662 12.4141 46.2811 13.648 45.3443 14.2332C44.9928 14.4528 44.6463 14.6673 44.3039 14.8793C43.3893 15.4455 42.5033 15.9939 41.6261 16.5746C40.7051 17.1843 39.4641 16.9319 38.8545 16.0108C38.2448 15.0897 38.4972 13.8488 39.4183 13.2391C40.3503 12.6222 41.3134 12.026 42.2447 11.4495C42.5765 11.2441 42.9042 11.0412 43.2251 10.8407C44.1619 10.2555 45.3957 10.5405 45.9809 11.4773Z" fill="#09B1AB"></path><path fill-rule="evenodd" clip-rule="evenodd" d="M36.8783 30.4296C37.6155 29.6071 38.8799 29.5378 39.7025 30.275C39.8455 30.4032 39.9899 30.5323 40.1353 30.6622C40.9404 31.3819 41.776 32.1289 42.5843 32.9065C43.3804 33.6722 43.4049 34.9383 42.6391 35.7344C41.8734 36.5304 40.6073 36.5549 39.8113 35.7892C39.0603 35.0668 38.287 34.3754 37.4808 33.6546C37.3327 33.5222 37.1834 33.3887 37.0329 33.2538C36.2103 32.5167 36.1411 31.2522 36.8783 30.4296Z" fill="#09B1AB"></path></svg>