<svg xmlns="http://www.w3.org/2000/svg" width="50" height="50" viewBox="0 0 50 50" fill="none"><path d="M8.50434 20.7436C10.0304 20.3615 11.6106 20.1673 13.2256 20.1053L15.1147 16.1659L7.5332 16.8633L4.39504 18.3248L2.41798 21.9745L8.56948 29.8149C8.58741 29.7126 8.63067 29.5215 8.69977 29.2551C8.76572 29.0008 8.84466 28.7181 8.92245 28.4508C9.00022 28.1836 9.07398 27.9416 9.12841 27.7703L9.15455 27.6889C9.42066 27.1038 9.32136 26.5137 9.24634 26.2667C9.14414 25.9302 8.97642 25.7063 8.9346 25.6505L8.93348 25.649C8.82395 25.5027 8.71692 25.4038 8.69392 25.3825L8.6919 25.3807C8.62721 25.3207 8.57148 25.2774 8.55901 25.2677L8.55788 25.2668C8.52185 25.2388 8.49115 25.2169 8.48315 25.2112C8.45918 25.1941 8.43456 25.1772 8.41869 25.1663C8.38631 25.1441 8.34247 25.1144 8.29666 25.0833L8.29566 25.0827L8.28475 25.0753C8.17967 25.004 8.04254 24.911 7.89663 24.81C7.74943 24.7081 7.60223 24.6042 7.47766 24.5125C7.34726 24.4164 7.28957 24.3685 7.28234 24.3625L7.28155 24.3618C6.70311 23.8322 6.35694 22.9727 6.40788 22.2587C6.42921 21.9585 6.55283 21.7184 6.87878 21.4602C7.24917 21.1668 7.81786 20.9153 8.50434 20.7436Z" fill="#F06D4F"></path><path d="M25.2522 7.33188L19.766 2.46387L17.3952 3.4605L15.09 7.18579L15.6862 14.9742L18.9855 8.09401C19.1202 7.51677 19.4951 6.90032 19.8804 6.59478C20.0519 6.45882 20.1464 6.44575 20.1568 6.44473C20.1615 6.44427 20.1701 6.44343 20.1912 6.44901C20.2141 6.45506 20.274 6.47473 20.3707 6.53861C20.4977 6.62272 20.6796 6.81008 20.8928 7.21117C21.1076 7.61534 21.2792 8.08732 21.4757 8.65038C21.6842 9.24708 21.8901 9.90587 22.1059 10.5965L23.8679 15.4296L25.3305 17.5772L31.7328 16.2222C31.1518 15.9506 30.437 15.7148 29.892 15.535C29.695 15.47 29.5201 15.4123 29.3818 15.3629C28.723 15.1276 28.3457 14.9254 28.0917 14.6831L28.0906 14.682C27.9238 14.5231 27.7287 14.2354 27.4821 13.7156C26.8622 12.4086 26.4739 11.1577 26.0402 9.76085L25.2522 7.33188Z" fill="#F06D4F"></path><path d="M15.09 7.18579C14.4479 9.9405 14.7444 12.7487 15.5196 15.3215L15.6862 14.9742L15.09 7.18579Z" fill="#F06D4F"></path><path d="M22.5772 3.20222C21.7076 2.62724 20.7434 2.36792 19.766 2.46387L25.2522 7.33188C25.0652 6.79602 24.8034 6.04618 24.425 5.33408C24.0449 4.61887 23.4732 3.79487 22.5772 3.20222Z" fill="#F06D4F"></path><path d="M17.3952 3.4605C16.1951 4.41206 15.3966 5.87103 15.09 7.18579L17.3952 3.4605Z" fill="#F06D4F"></path><path d="M25.3305 17.5772C26.2063 18.4127 27.2321 18.8425 28.0362 19.1298C28.3871 19.2551 28.6743 19.3489 28.9265 19.4313C29.3511 19.5701 29.6764 19.6764 30.0387 19.8458C31.8481 20.6915 33.2174 22.0634 34.1003 23.8793C34.4527 24.6042 35.2059 25.0467 36.0107 25.0017C36.7028 24.963 38.8651 24.99 39.6861 25.0045C40.7905 25.0241 41.7016 24.1447 41.7212 23.0403C41.7408 21.9359 40.8614 21.0247 39.757 21.0051C39.2623 20.9964 38.0723 20.979 37.0685 20.9824C35.7984 18.9152 33.9959 17.2801 31.7328 16.2222L25.3305 17.5772Z" fill="#F06D4F"></path><path d="M2.41798 21.9745C2.27507 23.98 3.15671 26.0105 4.58382 27.3152L4.58503 27.3163C4.69846 27.4198 4.84217 27.5349 4.99153 27.648C4.85118 28.1455 4.70007 28.7217 4.62944 29.125C4.17848 31.7008 5.38714 33.7147 7.16819 34.8788C6.95269 36.0081 7.10057 37.1774 7.47289 38.1668C7.96711 39.4802 8.95717 40.7546 10.4009 41.4409C10.5818 42.2791 10.9362 43.0295 11.4523 43.6781C12.2427 44.6715 13.2951 45.2797 14.2999 45.6684C16.0478 46.3446 18.1263 46.5168 19.5179 46.6321C19.6653 46.6443 19.8051 46.6559 19.9359 46.6673C24.0287 47.0261 26.8206 47.0616 29.3154 46.816C31.8021 46.5711 33.9263 46.0516 36.6087 45.39L36.6047 45.391C36.6047 45.391 36.6412 45.3836 36.7301 45.3707C36.8283 45.3564 36.956 45.3404 37.1103 45.3235C37.4184 45.2898 37.7948 45.2563 38.1824 45.2264C38.982 45.1649 39.7178 45.1273 39.9435 45.1268C41.0481 45.1245 41.9416 44.2273 41.9394 43.1227C41.9371 42.0181 41.0398 41.1245 39.9353 41.1268C39.5446 41.1276 38.6758 41.1766 37.8753 41.2382C37.1402 41.2948 36.1495 41.3833 35.6526 41.506C32.9379 42.1755 31.0821 42.6227 28.9235 42.8352C26.7723 43.047 24.2527 43.0304 20.2853 42.6826C20.1594 42.6716 20.0333 42.6607 19.9072 42.6499C18.4129 42.5214 16.9197 42.393 15.7431 41.9379C15.1434 41.7058 14.7856 41.4431 14.5824 41.1877C14.4088 40.9696 14.2435 40.6303 14.2622 39.9871C14.292 38.9627 13.5426 38.0816 12.5268 37.9464C11.9912 37.8752 11.4848 37.4709 11.2166 36.7581C10.9324 36.0028 11.0987 35.4072 11.3072 35.1641C11.7603 34.6359 11.9062 33.9102 11.6926 33.248C11.479 32.5857 10.9365 32.0821 10.2602 31.9182C8.9167 31.5926 8.41063 30.7227 8.56948 29.8149L2.41798 21.9745Z" fill="#F06D4F"></path><path d="M4.39504 18.3248C3.37291 19.1345 2.5343 20.3406 2.41798 21.9745L4.39504 18.3248Z" fill="#F06D4F"></path><path d="M7.5332 16.8633C6.5386 17.1121 5.37273 17.5503 4.39504 18.3248L7.5332 16.8633Z" fill="#F06D4F"></path><path d="M15.1515 16.0892C12.6357 16.043 10.0587 16.231 7.5332 16.8633L15.1147 16.1659L15.1515 16.0892Z" fill="#F06D4F"></path><path d="M15.7728 16.1053L15.6862 14.9742L15.5196 15.3215C15.5991 15.5854 15.6837 15.8467 15.7728 16.1053Z" fill="#F06D4F"></path><path d="M20.6745 17.3998C19.123 14.4074 18.2964 11.051 18.9855 8.09401L15.6862 14.9742L15.7728 16.1053L15.1147 16.1659L13.2256 20.1053C15.0181 20.0365 16.8534 20.1304 18.7049 20.311C19.4345 20.3821 20.1446 20.0484 20.5555 19.4412C20.9663 18.834 21.012 18.0507 20.6745 17.3998Z" fill="#F06D4F"></path><path d="M15.1147 16.1659L15.7728 16.1053C15.5661 16.0984 15.359 16.093 15.1515 16.0892L15.1147 16.1659Z" fill="#F06D4F"></path><path d="M19.766 2.46387C18.8176 2.55697 18.0165 2.96788 17.3952 3.4605L19.766 2.46387Z" fill="#F06D4F"></path><path fill-rule="evenodd" clip-rule="evenodd" d="M41.3108 21.5668C41.3108 21.5668 41.3091 21.5753 41.3036 21.5892C41.3078 21.5733 41.3108 21.5668 41.3108 21.5668Z" fill="#F06D4F"></path><path d="M42.6339 17.7253C41.5026 17.6897 39.7396 17.7571 38.4196 18.9094L42.6339 17.7253Z" fill="#F06D4F"></path><path d="M38.4196 18.9094C37.6953 19.5419 37.4536 20.3946 37.3553 20.9331L38.4196 18.9094Z" fill="#F06D4F"></path><path d="M37.4831 43.5308C37.6583 44.3044 38.0054 45.1866 38.7233 45.8994L37.4831 43.5308Z" fill="#F06D4F"></path><path d="M37.2852 41.2399C37.2733 41.9512 37.3074 42.7553 37.4831 43.5308L37.2852 41.2399Z" fill="#F06D4F"></path><path d="M37.3553 20.9331C37.2482 21.5198 37.2428 22.1298 37.2622 22.6392L37.3553 20.9331Z" fill="#F06D4F"></path><path fill-rule="evenodd" clip-rule="evenodd" d="M45.6298 17.9533C45.3238 17.9508 44.934 17.9137 44.3868 17.859L44.3517 17.8555L42.6339 17.7253L38.4196 18.9094L37.3553 20.9331L37.2622 22.6392L37.3741 24.0911C37.42 24.5505 37.4459 24.813 37.4485 24.9732C37.5077 28.6878 37.5067 32.4032 37.5058 36.137C37.5057 36.6868 37.5055 37.2371 37.5056 37.7878C37.5056 38.1263 37.4665 38.5774 37.4108 39.2138L37.2852 41.2399L37.4831 43.5308L38.7233 45.8994C39.9191 47.0868 41.5582 47.3614 42.7122 47.4476C43.3322 47.4939 43.9444 47.4925 44.4674 47.4856C44.6003 47.4838 44.7247 47.4818 44.8422 47.4799C45.2189 47.4739 45.5234 47.469 45.8009 47.4773C46.905 47.5105 47.8269 46.6423 47.8601 45.5383C47.8933 44.4342 47.0251 43.5123 45.9211 43.4791C45.5416 43.4677 45.1102 43.4748 44.7153 43.4813L44.7142 43.4813C44.6114 43.483 44.511 43.4847 44.4147 43.4859C43.9125 43.4925 43.4461 43.4913 43.0101 43.4587C42.0521 43.3872 41.6699 43.1882 41.542 43.0612C41.542 43.0612 41.4578 42.9715 41.3843 42.6472C41.3089 42.3144 41.2753 41.8686 41.2847 41.3068C41.294 40.7507 41.3426 40.1697 41.3957 39.5621L41.4045 39.4606C41.452 38.9199 41.5056 38.3089 41.5056 37.7876C41.5055 37.239 41.5057 36.69 41.5058 36.1406C41.5061 34.8065 41.5065 33.4699 41.504 32.1317C41.4997 29.7274 41.4863 27.318 41.448 24.9091C41.4425 24.5695 41.3996 24.1436 41.364 23.79L41.3542 23.693C41.3123 23.2744 41.2738 22.8699 41.2593 22.4875C41.2487 22.2072 41.2534 21.9873 41.2679 21.8238C41.4777 21.7617 41.8564 21.7028 42.508 21.7234C42.8538 21.7343 43.2108 21.7636 43.5908 21.7999C43.7206 21.8123 43.853 21.8256 43.9887 21.8391L44.0317 21.8434C44.5164 21.892 45.0853 21.9489 45.5967 21.9532C46.7012 21.9623 47.604 21.0744 47.6132 19.9698C47.6223 18.8653 46.7344 17.9625 45.6298 17.9533ZM41.3108 21.5668C41.3108 21.5668 41.3091 21.5753 41.3036 21.5892C41.3078 21.5733 41.3108 21.5668 41.3108 21.5668Z" fill="#F06D4F"></path></svg>