<svg xmlns="http://www.w3.org/2000/svg" width="50" height="50" viewBox="0 0 50 50" fill="none"><path fill-rule="evenodd" clip-rule="evenodd" d="M27.2558 3.73714C25.8318 2.76523 24.2887 2.57168 22.847 3.14386C21.5642 3.65297 20.601 4.67603 19.9077 5.61714C18.735 7.20885 17.8306 9.30092 17.2865 10.5595C17.1896 10.7835 17.1042 10.9811 17.0307 11.1448C16.7132 11.8516 16.404 12.5618 16.1021 13.2704C15.7351 14.1326 15.4036 14.9952 15.0919 15.8561L14.8897 15.852C13.5318 15.8248 11.8393 15.7909 10.8811 15.8374C9.7778 15.8909 8.63011 16.015 7.48298 16.2777C5.49788 16.7322 3.78374 17.8668 2.96415 19.6534C2.12589 21.4808 2.42905 23.5399 3.59064 25.3641C5.3494 28.1249 7.71425 30.4428 9.91057 32.5321C9.17054 35.423 8.40876 39.021 8.98452 42.3209C9.30201 44.1414 10.2337 45.6926 11.7805 46.5532C13.3115 47.405 15.1058 47.3912 16.7869 46.7887C19.6402 45.7659 22.2606 43.616 24.284 41.492C24.5394 41.7128 24.7953 41.9305 25.051 42.1454C25.726 42.7134 26.4176 43.2434 27.0883 43.7456C28.4711 44.781 30.9862 46.228 33.477 46.6958C34.7303 46.9312 36.2139 46.9634 37.5705 46.3197C39.0237 45.6302 39.9996 44.3257 40.4393 42.5734C40.9694 40.4614 40.5812 38.2026 40.073 36.2912C39.8118 35.309 39.497 34.344 39.2017 33.4605L39.1437 33.2873L39.0473 32.9998L39.0456 32.9948C38.8995 32.5597 38.7622 32.1506 38.6371 31.7612C40.759 30.0829 43.0909 28.1848 44.8751 25.7631C45.8264 24.4719 47.1636 22.0757 46.0464 19.5369C44.994 17.1455 42.6426 16.506 40.9113 16.3063C40.0012 16.2014 39.0685 16.194 38.2541 16.1991C38.0581 16.2003 37.8713 16.2022 37.6925 16.2039C37.0838 16.2099 36.5672 16.215 36.0953 16.1916C35.2528 16.1495 34.4064 16.1252 33.5756 16.1049C33.2692 15.3367 32.9935 14.5737 32.7067 13.7804C32.4324 13.0213 32.148 12.2345 31.8172 11.3889L31.7131 11.1223C31.243 9.91792 30.7289 8.60094 30.0776 7.3364C29.7329 6.66589 29.2784 5.81344 28.657 5.05454C28.299 4.61692 27.8449 4.13919 27.2558 3.73714ZM34.7011 30.7064C34.4847 31.1421 34.4257 31.6574 34.5741 32.1609C34.7749 32.8428 35.0209 33.5751 35.2617 34.2922C35.3108 34.4384 35.3597 34.584 35.408 34.7284C35.7002 35.6029 35.9806 36.4666 36.2073 37.3191C36.6747 39.0772 36.8328 40.5117 36.5597 41.5997C36.3585 42.4014 36.0486 42.6144 35.8557 42.7059C35.5663 42.8432 35.0437 42.9201 34.2153 42.7645C32.5427 42.4504 30.5925 41.3724 29.4858 40.5437C28.8348 40.0563 28.2145 39.5796 27.6264 39.0848L27.6254 39.084C26.8909 38.4667 26.1791 37.8459 25.4992 37.2065C25.0981 36.8294 24.5593 36.6343 24.0097 36.6671C23.4601 36.7 22.9484 36.958 22.5951 37.3803C20.6156 39.7466 17.9828 42.1108 15.4373 43.0233C14.5625 43.3368 14.0153 43.2191 13.7252 43.0578C13.451 42.9052 13.082 42.5341 12.925 41.6336C12.4463 38.89 13.2288 35.6154 14.0777 32.4067C14.2645 31.7006 14.0515 30.9488 13.5221 30.4456L13.2537 30.1905C10.8339 27.8917 8.5788 25.7493 6.96444 23.2152C6.36529 22.2743 6.44607 21.6565 6.59987 21.3212C6.77235 20.9452 7.26451 20.4312 8.37564 20.1768C9.22885 19.9814 10.1306 19.8785 11.0748 19.8327C11.9143 19.792 13.2541 19.8202 14.5093 19.8466C15.2457 19.8621 15.9529 19.877 16.5128 19.877C16.8634 19.877 17.2079 19.7848 17.5116 19.6097C17.8763 19.3995 18.08 19.1287 18.1447 19.0404C18.2337 18.919 18.2936 18.81 18.3272 18.7455C18.3952 18.6146 18.4432 18.4926 18.4708 18.419C18.5297 18.2622 18.5814 18.0938 18.6183 17.9687C18.6535 17.8496 18.6871 17.729 18.712 17.6394L18.7201 17.6106C18.7328 17.5649 18.7411 17.5359 18.7458 17.5192L18.7504 17.5032C19.0762 16.5909 19.4128 15.7058 19.7823 14.8375C20.0761 14.148 20.3745 13.4627 20.6796 12.7836C20.7859 12.5468 20.8967 12.2925 21.0127 12.0264L23.128 7.98975L24.3225 6.86177L24.3308 6.85848L25.0008 7.04095C25.1653 7.15324 25.3445 7.32258 25.561 7.5873L25.5618 7.58822C25.8906 7.98963 26.1813 8.50618 26.5201 9.1652L26.5209 9.16673C27.0739 10.2402 27.5173 11.375 28.0048 12.6229L28.092 12.8459C28.3414 13.4834 28.5976 14.1885 28.8637 14.9208C29.3191 16.1743 29.8036 17.5077 30.3327 18.7193C30.6007 19.5061 31.3332 20.0521 32.1764 20.0729C32.4086 20.0786 32.639 20.084 32.868 20.0893C33.8971 20.1133 34.8973 20.1367 35.8969 20.1866C36.5001 20.2166 37.178 20.2097 37.8063 20.2032L37.8094 20.2032C37.9698 20.2016 38.127 20.2 38.2789 20.199C39.0746 20.1941 39.8006 20.2048 40.4531 20.28C41.8468 20.4407 42.2364 20.8099 42.3852 21.148C42.4786 21.3601 42.5048 21.6218 42.3927 22.0107C42.2731 22.4259 42.0162 22.8999 41.6547 23.3905C40.0903 25.5139 37.9653 27.1934 35.6275 29.0411L35.4605 29.1731C34.9716 29.5596 34.7117 30.1284 34.7011 30.7064Z" fill="#D78BCD"></path><path fill-rule="evenodd" clip-rule="evenodd" d="M33.3567 5.40034C34.0657 6.24737 33.9537 7.50875 33.1067 8.2177C32.097 9.06282 31.1085 9.92644 30.2109 10.8128C29.4249 11.5888 28.1586 11.5808 27.3825 10.7948C26.6064 10.0088 26.6145 8.74254 27.4004 7.96646C28.4107 6.96893 29.4938 6.02541 30.5394 5.15032C31.3864 4.44137 32.6478 4.55331 33.3567 5.40034Z" fill="#D78BCD"></path><path fill-rule="evenodd" clip-rule="evenodd" d="M36.2331 9.30757C36.9781 10.1231 36.9209 11.3881 36.1054 12.1331C35.0781 13.0716 34.0777 14.0246 33.0574 14.9966C32.7735 15.2671 32.488 15.539 32.2 15.8125C31.399 16.5731 30.1331 16.5404 29.3725 15.7395C28.6119 14.9385 28.6446 13.6726 29.4455 12.912C29.7231 12.6484 30.0016 12.3831 30.2813 12.1166C31.3061 11.1403 32.3462 10.1494 33.4075 9.1799C34.223 8.4349 35.4881 8.49206 36.2331 9.30757Z" fill="#D78BCD"></path><path fill-rule="evenodd" clip-rule="evenodd" d="M40.4961 13.1637C41.2873 13.9344 41.3039 15.2007 40.5331 15.9919C39.4755 17.0776 38.4747 18.2414 37.4417 19.4535C36.7253 20.2942 35.4629 20.3949 34.6222 19.6785C33.7815 18.962 33.6808 17.6997 34.3972 16.859C35.4257 15.6521 36.5058 14.3937 37.6679 13.2008C38.4386 12.4095 39.7048 12.3929 40.4961 13.1637Z" fill="#D78BCD"></path><path fill-rule="evenodd" clip-rule="evenodd" d="M46.9875 15.754C47.7577 16.5458 47.7401 17.812 46.9483 18.5822C46.2195 19.291 45.4701 19.9883 44.6996 20.6649C43.8697 21.3938 42.606 21.3119 41.8771 20.4819C41.1483 19.6519 41.2302 18.3883 42.0602 17.6594C42.7734 17.0331 43.4728 16.3825 44.1594 15.7147C44.9512 14.9446 46.2174 14.9622 46.9875 15.754Z" fill="#D78BCD"></path><path fill-rule="evenodd" clip-rule="evenodd" d="M40.857 31.0754C41.557 31.9299 41.4317 33.19 40.5772 33.8899C39.9438 34.4087 39.335 34.9723 38.6815 35.5834C37.8747 36.3378 36.6091 36.2954 35.8546 35.4886C35.1002 34.6818 35.1426 33.4162 35.9494 32.6618C36.5988 32.0545 37.2953 31.4075 38.0425 30.7955C38.897 30.0956 40.1571 30.2209 40.857 31.0754Z" fill="#D78BCD"></path><path fill-rule="evenodd" clip-rule="evenodd" d="M42.412 37.972C43.1005 38.8358 42.9585 40.0941 42.0948 40.7826C41.4791 41.2734 40.8918 41.8042 40.253 42.3816C40.1665 42.4598 40.079 42.5388 39.9905 42.6187C39.1703 43.3585 37.9056 43.2934 37.1658 42.4732C36.426 41.6529 36.4911 40.3883 37.3113 39.6485C37.3955 39.5726 37.4807 39.4955 37.567 39.4175C38.1961 38.8485 38.8815 38.2287 39.6014 37.6548C40.4652 36.9663 41.7235 37.1083 42.412 37.972Z" fill="#D78BCD"></path><path fill-rule="evenodd" clip-rule="evenodd" d="M28.8267 40.0337C29.6692 40.7479 29.7732 42.01 29.059 42.8525C27.9235 44.192 26.6414 45.2622 25.4177 46.2358C24.5534 46.9236 23.2952 46.7804 22.6074 45.9161C21.9197 45.0518 22.0628 43.7935 22.9272 43.1058C24.1179 42.1584 25.14 41.2897 26.0078 40.266C26.722 39.4234 27.9841 39.3194 28.8267 40.0337Z" fill="#D78BCD"></path></svg>