<svg xmlns="http://www.w3.org/2000/svg" xmlns:xlink="http://www.w3.org/1999/xlink" id="eV2nPfRWkg41" viewBox="0 0 107 107"><style><![CDATA[#eV2nPfRWkg42 {animation: eV2nPfRWkg42_s_do 3000ms linear infinite normal forwards}@keyframes eV2nPfRWkg42_s_do { 0% {stroke-dashoffset: 104.879922;animation-timing-function: cubic-bezier(0.42,0,1,1)} 46.666667% {stroke-dashoffset: 0;animation-timing-function: cubic-bezier(0.42,0,1,1)} 100% {stroke-dashoffset: 104.879922}} #eV2nPfRWkg43 {animation: eV2nPfRWkg43_s_do 3000ms linear infinite normal forwards}@keyframes eV2nPfRWkg43_s_do { 0% {stroke-dashoffset: 91.901926;animation-timing-function: cubic-bezier(0.42,0,1,1)} 53.333333% {stroke-dashoffset: 0;animation-timing-function: cubic-bezier(0.42,0,1,1)} 100% {stroke-dashoffset: 91.901926}} #eV2nPfRWkg44 {animation: eV2nPfRWkg44_s_do 3000ms linear infinite normal forwards}@keyframes eV2nPfRWkg44_s_do { 0% {stroke-dashoffset: 91.431049;animation-timing-function: cubic-bezier(0.42,0,1,1)} 40% {stroke-dashoffset: 0;animation-timing-function: cubic-bezier(0.42,0,1,1)} 100% {stroke-dashoffset: 91.431049}}]]></style><path id="eV2nPfRWkg42" d="M17.0312,48.029c.9037-.1555,1.7305-.5294,2.5147-.9955c2.3322-1.3866,4.0203-3.7175,4.6739-6.351.1199.394.5284,1.4757.6796,1.7926.5545,1.1619,1.1682,2.2614,2.2188,3.0509c4.4454,3.3412,8.9064-1.6255,9.91-5.6685.0445.3223.6601,2.4196.8092,2.7648.7729,1.789,2.0707,3.6834,4.0221,4.2906c4.0296,1.2538,6.9908-2.4317,7.914-5.8697c0,0,.1619.6523.2678.9708.1796.5403.3853,1.069.6522,1.5732.7819,1.4774,1.971,2.8374,3.57,3.436c3.7581,1.4071,8.0088-1.5568,8.637-5.3226c0,0,.1142.5184.2122.7637.2739.686.6305,1.3409,1.0338,1.9591.9479,1.4539,2.23,2.7656,3.8371,3.473c3.2595,1.4349,9.2196-1.1935,9.0298-5.3405-.0011-.0003.2456.5787.2642.6119.2259.3979.4928.7751.7606,1.1452.6503.8981,1.3497,1.7469,2.1979,2.4662c3.0303,2.57,5.6849,2.3002,9.188,1.1235" fill="none" stroke="#2f2b2b" stroke-width="3" stroke-linecap="round" stroke-linejoin="round" stroke-miterlimit="1.5" stroke-dashoffset="104.879922" stroke-dasharray="104.879922"></path><path id="eV2nPfRWkg43" d="M16.4961,56.6506c.8777-.1056,1.7127-.4376,2.5128-.7983c2.2634-1.0203,4.0129-2.6539,5.6037-4.512.0013-.0013.591.969.6493,1.0502.5646.7839,1.3115,1.4434,2.1499,1.9229c3.1779,1.8173,7.2592.5576,8.8123-2.6985c0,.3093.5695,1.106.6906,1.2444.9463,1.0809,2.0956,2.1019,3.4605,2.6068c3.2967,1.22,7.6537-.4282,9.2958-3.5596.0237.5212.5818,1.3686.6381,1.4386.8874,1.106,2.1585,1.9772,3.548,2.2888c3.3064.7417,6.881-.8983,8.441-3.9105.2397.751.7256,1.5176.8616,1.6693c1.0138,1.1316,2.2737,2.0463,3.7285,2.5121c3.58,1.1464,8.4868-.9502,9.9122-3.4741-.0567.2103.0532.6542.072.6908.218.4158.5159.7833.8407,1.1204.8696.9026,1.9327,1.6226,3.0394,2.2013c3.2685,1.7089,8.254,1.8341,10.331-1.8424" fill="none" stroke="#2f2b2b" stroke-width="3" stroke-linecap="round" stroke-linejoin="round" stroke-miterlimit="1.5" stroke-dashoffset="91.901926" stroke-dasharray="91.901926"></path><path id="eV2nPfRWkg44" d="M16.0508,66.7372c.8301-.0897,1.6625.2344,2.5415.0505c3.0933-.6473,4.9079-2.6916,6.6776-5.0288.1266.4207.3995.7602.5558.9445.8052.9506,1.8298,1.7969,3.0032,2.2498c3.1419,1.2125,5.7178-.6951,7.2237-3.2894c0,0,.1918.3039.306.4423.2128.2584.4369.5083.6693.7494.8635.8956,1.8872,1.606,3.0805,1.9889c3.1031.9957,6.9889-.4459,8.5363-3.3596.0129.1028.7685,1.2375.8443,1.3292c1.0813,1.3063,2.3733,2.2511,3.99,2.7804c3.6081,1.1817,6.635-1.08,8.2347-4.1914.0589.4116.8171,1.3251.8941,1.4128.9189,1.0473,1.9287,1.9857,3.1738,2.6353c3.1561,1.6468,8.8616,1.3263,9.9524-2.9538-.0128-.0025.2857.5314.3328.6014.3288.4887.7146.9407,1.1341,1.3543c1.0268,1.0116,2.297,1.7841,3.6323,2.3174c2.5262,1.0096,5.3899.3412,7.5754-1.1876.6823-.4771,1.141-1.2608,1.7915-1.7069" fill="none" stroke="#2f2b2b" stroke-width="3" stroke-linecap="round" stroke-linejoin="round" stroke-miterlimit="1.5" stroke-dashoffset="91.431049" stroke-dasharray="91.431049"></path></svg>