<svg xmlns="http://www.w3.org/2000/svg" xmlns:xlink="http://www.w3.org/1999/xlink" id="eQ4tRaZihXK1" viewBox="0 0 150 300"><style><![CDATA[#eQ4tRaZihXK4_tr {animation: eQ4tRaZihXK4_tr__tr 3000ms linear infinite normal forwards}@keyframes eQ4tRaZihXK4_tr__tr { 0% {transform: translate(32.732409px,123.000008px) rotate(0deg)} 50% {transform: translate(32.732409px,123.000008px) rotate(10deg);animation-timing-function: cubic-bezier(0.42,0,0.58,1)} 100% {transform: translate(32.732409px,123.000008px) rotate(0deg)}} #eQ4tRaZihXK6_to {animation: eQ4tRaZihXK6_to__to 3000ms linear infinite normal forwards}@keyframes eQ4tRaZihXK6_to__to { 0% {transform: translate(22.232421px,203.000023px);animation-timing-function: cubic-bezier(0.42,0,1,1)} 63.333333% {transform: translate(26px,209px);animation-timing-function: cubic-bezier(0.42,0,1,1)} 100% {transform: translate(22.232421px,203.000023px)}} #eQ4tRaZihXK7_tr {animation: eQ4tRaZihXK7_tr__tr 3000ms linear infinite normal forwards}@keyframes eQ4tRaZihXK7_tr__tr { 0% {transform: translate(123.732601px,207.500053px) rotate(0deg);animation-timing-function: cubic-bezier(0,0,0.58,1)} 40% {transform: translate(123.732601px,207.500053px) rotate(-13deg);animation-timing-function: cubic-bezier(0,0,0.58,1)} 100% {transform: translate(123.732601px,207.500053px) rotate(0deg)}} #eQ4tRaZihXK8_to {animation: eQ4tRaZihXK8_to__to 3000ms linear infinite normal forwards}@keyframes eQ4tRaZihXK8_to__to { 0% {transform: translate(98.232494px,48.500019px)} 53.333333% {transform: translate(95px,52px)} 100% {transform: translate(98.232494px,48.500019px)}} #eQ4tRaZihXK9_to {animation: eQ4tRaZihXK9_to__to 3000ms linear infinite normal forwards}@keyframes eQ4tRaZihXK9_to__to { 0% {transform: translate(73.73242px,175.499886px)} 36.666667% {transform: translate(79px,170px)} 100% {transform: translate(73.73242px,175.499886px)}}]]></style><path d="M38.5703,45.1277c-2.6591.7548-5.087,1.6258-7.6305,2.2064-8.7289,1.9161-17.4577-2.4386-20.4636-10.1029-2.08107-5.3998.1156-10.2771,5.376-12.5996c8.4398-3.716,20.9261.6968,25.6084,8.0707.2312.3484.4625.6387.6359.871c8.5554-5.4579,8.4976-20.1477.1734-25.77982-.8671-.58062-1.792-1.10318-2.7169-1.68381-1.7342-1.21931-1.9076-2.9612-1.0983-4.64502s2.4278-1.741876,4.0464-1.045125C49.0911,3.43878,53.1954,8.43217,54.6984,15.5739c1.8498,9.0577-1.214,16.5478-7.5149,22.8766-1.4452,1.4516-1.9076,2.787-1.792,4.8192.6937,11.8448-5.6651,21.3671-16.3015,24.7928-9.3069,2.9612-21.79321-1.3355-27.51608-9.4642-1.387365-1.9161-2.196654-3.7741.11562-5.516C3.944,51.3985,5.38917,52.9662,6.71873,54.65c5.14477,6.3869,11.73477,8.8255,19.71207,7.0836c7.3415-1.5676,13.2956-9.6384,12.1395-16.6059ZM36.8939,37.928c-2.6013-5.574-9.3647-8.7675-16.4171-7.8385-4.1621.5226-5.3761,3.1935-2.9482,6.6772.4625.6968,1.0983,1.3355,1.792,1.858c4.5668,3.658,12.4863,3.3677,17.5733-.6967Z" fill="#ed688d"></path><path d="M62.9286,282.666c-1.6512-.286-2.8306.401-4.069.631-1.5332.229-3.0664.573-4.6586.63-3.1254.229-5.897-.573-7.3713-3.552-1.4152-2.922-.1179-5.443,1.8281-7.563c2.6537-2.865,6.0739-4.87,9.4352-6.818c6.015-3.495,12.0889-6.818,19.3422-6.99c7.6072-.172,12.1478,4.87,10.4377,12.089-2.1819,9.282-6.7815,17.647-12.3247,25.438-.3539.459-.8256.803-1.2384,1.204-4.2459,3.953-9.0814,2.578-10.7326-2.922-1.1794-3.954-.7666-7.964-.6486-12.147Zm7.1943,10.371c3.5972-5.214,6.4278-9.97,8.5507-15.069c1.1204-2.75,2.5947-5.385,2.8895-8.364.3538-3.152-.8845-4.412-4.1869-4.355-.9435,0-1.946.172-2.8895.459-4.8355,1.375-9.3762,3.437-13.5631,6.015-2.5357,1.547-5.3663,2.922-7.1944,5.73c2.8306.114,5.1304-.86,7.4892-1.318c3.7152-.688,5.1304-4.412,8.6686-5.5c2.123-.63,3.6562-1.318,5.0715.63c1.5332,2.12.0589,3.495-1.4153,4.87-1.0025.859-2.3588,1.318-2.8306,2.75-1.4153,4.354-2.005,8.766-.5897,14.152Z" fill="#09b1ab"></path><g id="eQ4tRaZihXK4_tr" transform="translate(32.732409,123.000008) rotate(0)"><path d="M30.9946,120.828c-4.5189.118-7.6881,2.589-10.3877,5.707-1.4671,1.707-2.6409,3.649-3.8146,5.532-1.1738,1.941-2.5823,3.412-4.9298,2-2.28878-1.412-1.8193-3.354-.7042-5.354c4.7536-8.709,11.2679-14.769,21.8316-14.652c1.5259,0,2.1715-1.059,3.0518-1.942C40.0324,107.942,45.0208,106,50.7135,106c2.2888,0,4.5189.53,4.5189,3.413s-2.1127,3.354-4.5189,3.236c-3.6386-.118-6.8077,1.177-9.8595,3.648c2.2889,1.942,4.3429,3.707,5.458,6.296c2.5822,5.943.6455,13.357-4.3429,16.476-2.2301,1.412-3.9907,1.235-5.7514-.648-3.1691-3.412-4.9884-7.414-5.2818-12.121c0-1.706.0587-3.471.0587-5.472Zm8.627,11.297c2.5236-3.707,1.7019-7.355-1.9367-9.532-.8803,3.472.2935,6.414,1.9367,9.532Z" transform="translate(-32.732409,-123.000008)" fill="#47b1e4"></path></g><path d="M116.96,111.289c-9.209.861-13.055-6.31-12.706-11.3002.117-1.4341.466-2.8682,1.923-3.6712c1.166-.631,2.273-.2295,3.264.4015c1.166.6883,1.282,1.7782,1.341,2.9828.233,4.0151,1.748,5.3351,5.886,5.3351.991,0,1.923-.115,2.914-.115c7.927-.115,13.23,7.4,10.374,14.627-.408.976-.816,1.951-1.224,2.926-1.34,3.27-.757,4.13,2.856,3.901c2.331-.173,4.604-.574,6.936-.918c3.671-.574,6.702.516,8.917,3.499c2.098,2.868,2.331,6.138.816,9.235-1.632,3.385-4.08,6.253-7.519,8.146-1.631.917-3.263,1.032-4.371-.631-1.049-1.492-.816-3.041.7-4.302c1.515-1.32,3.205-2.467,4.371-4.188.991-1.491,1.457-3.04.524-4.532-.874-1.434-2.506-1.032-3.963-.803-2.215.345-4.429.689-6.644.861-3.555.229-6.819-.516-8.917-3.671-2.04-3.098-1.224-6.196.408-9.236c2.04-3.786,1.865-6.08-.699-7.858-1.691-1.205-3.556-.517-5.187-.689Z" fill="#09b1ab"></path><g id="eQ4tRaZihXK6_to" transform="translate(22.232421,203.000023)"><path d="M17.2473,189.113c-.116-2.14.406-3.933,2.9576-4.107c2.4356-.115,3.3054,1.388,3.5954,3.587c1.1018,9.254,2.2616,18.509,3.3635,27.706.2319,2.141,0,4.165-2.6676,4.628-2.2617.405-3.4795-.868-3.8854-3.876-1.1018-8.965-2.2037-17.931-3.3055-26.839c0-.289,0-.694-.058-1.099Z" transform="translate(-22.232421,-203.000023)" fill="#f06d4f"></path></g><g id="eQ4tRaZihXK7_tr" transform="translate(123.732601,207.500053) rotate(0)"><path d="M127.865,199.02c3.513-.168,6.734.727,9.603,2.741c1.756,1.231,2.342,2.741,1.112,4.531-1.171,1.734-2.752,1.846-4.508.783-7.202-4.083-16.805-.559-19.439,6.713-.703,1.958-2.225,2.686-4.392,1.902-2.283-.895-2.283-2.573-1.639-4.363c2.517-7.161,10.598-12.307,19.263-12.307Z" transform="translate(-123.732601,-207.500053)" fill="#e0c1dc"></path></g><g id="eQ4tRaZihXK8_to" transform="translate(98.232494,48.500019)"><path d="M106.399,48.3601c-6.059-.1149-11.483,1.7802-16.2723,5.4554-1.9619,1.5505-4.3854,1.6079-5.3086,0-1.2118-2.1247-.4616-3.6178,1.5002-5.0534c6.2896-4.7089,13.2717-7.1208,21.1767-6.7188c3.174.1722,4.847,1.3782,4.732,3.3881-.116,2.1247-1.731,3.1009-4.963,2.9287-.288,0-.577,0-.865,0Z" transform="translate(-98.232494,-48.500019)" fill="#47b1e4"></path></g><g id="eQ4tRaZihXK9_to" transform="translate(73.73242,175.499886)"><path d="M65.6653,186c-1.4917-.058-2.5243-.465-3.0407-1.687-.6311-1.338-.5163-2.677.459-3.782c5.1634-5.469,10.8431-10.356,16.9244-14.72c1.6064-1.164,3.3275-1.164,4.5323.582c1.1474,1.687.8605,3.374-.8032,4.596-5.6797,4.247-11.2447,8.611-16.0065,13.964-.5737.756-1.4342.989-2.0653,1.047Z" transform="translate(-73.73242,-175.499886)" fill="#fecd3e"></path></g></svg>